<?xml version="1.0" encoding="UTF-8" standalone="no"?>
<!-- Created with Inkscape (http://www.inkscape.org/) -->

<svg
   xmlns:dc="http://purl.org/dc/elements/1.1/"
   xmlns:cc="http://creativecommons.org/ns#"
   xmlns:rdf="http://www.w3.org/1999/02/22-rdf-syntax-ns#"
   xmlns:svg="http://www.w3.org/2000/svg"
   xmlns="http://www.w3.org/2000/svg"
   xmlns:sodipodi="http://sodipodi.sourceforge.net/DTD/sodipodi-0.dtd"
   xmlns:inkscape="http://www.inkscape.org/namespaces/inkscape"
   width="15"
   height="15"
   id="svg3680"
   version="1.1"
   inkscape:version="0.48.4 r9939"
   sodipodi:docname="excited.svg">
  <defs
     id="defs3682" />
  <sodipodi:namedview
     id="base"
     pagecolor="#ffffff"
     bordercolor="#666666"
     borderopacity="1.0"
     inkscape:pageopacity="0.0"
     inkscape:pageshadow="2"
     inkscape:zoom="9.0038264"
     inkscape:cx="1.7516039"
     inkscape:cy="3.6106809"
     inkscape:current-layer="layer1"
     showgrid="true"
     inkscape:grid-bbox="true"
     inkscape:document-units="px"
     inkscape:window-width="1236"
     inkscape:window-height="681"
     inkscape:window-x="52"
     inkscape:window-y="52"
     inkscape:window-maximized="0" />
  <metadata
     id="metadata3685">
    <rdf:RDF>
      <cc:Work
         rdf:about="">
        <dc:format>image/svg+xml</dc:format>
        <dc:type
           rdf:resource="http://purl.org/dc/dcmitype/StillImage" />
        <dc:title></dc:title>
      </cc:Work>
    </rdf:RDF>
  </metadata>
  <g
     id="layer1"
     inkscape:label="Layer 1"
     inkscape:groupmode="layer"
     transform="translate(0,-1)">
    <path
       inkscape:connector-curvature="0"
       d="M 7.5001525,1 C 3.3577399,1 0,4.3578082 0,8.5 0,12.642192 3.3577399,16 7.5001525,16 11.64226,16 15,12.642192 15,8.5 15,4.3578082 11.64226,1 7.5001525,1 l 0,0 z m 0,1.5254444 c 3.2939775,0 5.9744345,2.6802058 5.9744345,5.9745556 0,3.294045 -2.680457,5.974556 -5.9744345,5.974556 -3.2945878,0 -5.9747391,-2.680511 -5.9747391,-5.974556 0,-3.2943498 2.6801513,-5.9745556 5.9747391,-5.9745556"
       style="fill:#444142;fill-opacity:1;fill-rule:nonzero;stroke:none"
       id="path3009" />
    <path
       inkscape:connector-curvature="0"
       d="m 6.1166026,7.2167962 c 0,0.5689907 -0.4609799,1.0302851 -1.0299591,1.0302851 -0.5689792,0 -1.0302642,-0.4612944 -1.0302642,-1.0302851 0,-0.5689908 0.461285,-1.0302852 1.0302642,-1.0302852 0.5689792,0 1.0299591,0.4612944 1.0299591,1.0302852"
       style="fill:#444142;fill-opacity:1;fill-rule:nonzero;stroke:none"
       id="path3011" />
    <path
       inkscape:connector-curvature="0"
       d="m 10.943926,7.2167962 c 0,0.5689907 -0.461285,1.0302851 -1.0302644,1.0302851 -0.5692843,0 -1.0302642,-0.4612944 -1.0302642,-1.0302851 0,-0.5689908 0.4609799,-1.0302852 1.0302642,-1.0302852 0.5689794,0 1.0302644,0.4612944 1.0302644,1.0302852"
       style="fill:#444142;fill-opacity:1;fill-rule:nonzero;stroke:none"
       id="path3013" />
    <path
       inkscape:connector-curvature="0"
       d="m 10.893282,11.012712 c 0,0.328276 -0.266337,0.594618 -0.594911,0.594618 l -5.5967419,0 c -0.328574,0 -0.5949112,-0.266342 -0.5949112,-0.594618 l 0,0 c 0,-0.328276 0.2663372,-0.594923 0.5949112,-0.594923 l 5.5967419,0 c 0.328574,0 0.594911,0.266647 0.594911,0.594923 l 0,0"
       style="fill:#444142;fill-opacity:1;fill-rule:nonzero;stroke:none"
       id="path3015" />
  </g>
</svg>
