<?xml version="1.0" encoding="UTF-8" standalone="no"?>
<!-- Created with Inkscape (http://www.inkscape.org/) -->

<svg
   xmlns:dc="http://purl.org/dc/elements/1.1/"
   xmlns:cc="http://creativecommons.org/ns#"
   xmlns:rdf="http://www.w3.org/1999/02/22-rdf-syntax-ns#"
   xmlns:svg="http://www.w3.org/2000/svg"
   xmlns="http://www.w3.org/2000/svg"
   xmlns:sodipodi="http://sodipodi.sourceforge.net/DTD/sodipodi-0.dtd"
   xmlns:inkscape="http://www.inkscape.org/namespaces/inkscape"
   width="15"
   height="15"
   id="svg3680"
   version="1.1"
   inkscape:version="0.48.4 r9939"
   sodipodi:docname="doh.svg">
  <defs
     id="defs3682" />
  <sodipodi:namedview
     id="base"
     pagecolor="#ffffff"
     bordercolor="#666666"
     borderopacity="1.0"
     inkscape:pageopacity="0.0"
     inkscape:pageshadow="2"
     inkscape:zoom="9.0038264"
     inkscape:cx="1.7516039"
     inkscape:cy="3.6106809"
     inkscape:current-layer="layer1"
     showgrid="true"
     inkscape:grid-bbox="true"
     inkscape:document-units="px"
     inkscape:window-width="1236"
     inkscape:window-height="681"
     inkscape:window-x="52"
     inkscape:window-y="52"
     inkscape:window-maximized="0" />
  <metadata
     id="metadata3685">
    <rdf:RDF>
      <cc:Work
         rdf:about="">
        <dc:format>image/svg+xml</dc:format>
        <dc:type
           rdf:resource="http://purl.org/dc/dcmitype/StillImage" />
        <dc:title></dc:title>
      </cc:Work>
    </rdf:RDF>
  </metadata>
  <g
     id="layer1"
     inkscape:label="Layer 1"
     inkscape:groupmode="layer"
     transform="translate(0,-1)">
    <path
       inkscape:connector-curvature="0"
       d="M 7.5003051,1 C 3.3578082,1 0,4.3578082 0,8.5 0,12.642192 3.3578082,16 7.5003051,16 11.642192,16 15,12.642192 15,8.5 15,4.3578082 11.642192,1 7.5003051,1 l 0,0 z m 0,1.5254444 c 3.2940449,0 5.9742509,2.6802058 5.9742509,5.9745556 0,3.294045 -2.680206,5.974556 -5.9742509,5.974556 -3.2946549,0 -5.9748607,-2.680511 -5.9748607,-5.974556 0,-3.2943498 2.6802058,-5.9745556 5.9748607,-5.9745556"
       style="fill:#444142;fill-opacity:1;fill-rule:nonzero;stroke:none"
       id="path3017" />
    <path
       inkscape:connector-curvature="0"
       d="m 6.116727,7.2167962 c 0,0.5689907 -0.4609893,1.0302851 -1.0299801,1.0302851 -0.5689907,0 -1.0302851,-0.4612944 -1.0302851,-1.0302851 0,-0.5689908 0.4612944,-1.0302852 1.0302851,-1.0302852 0.5689908,0 1.0299801,0.4612944 1.0299801,1.0302852"
       style="fill:#444142;fill-opacity:1;fill-rule:nonzero;stroke:none"
       id="path3019" />
    <path
       inkscape:connector-curvature="0"
       d="m 10.943843,7.2167962 c 0,0.5689907 -0.461294,1.0302851 -1.0302849,1.0302851 -0.5689907,0 -1.0302851,-0.4612944 -1.0302851,-1.0302851 0,-0.5689908 0.4612944,-1.0302852 1.0302851,-1.0302852 0.5689909,0 1.0302849,0.4612944 1.0302849,1.0302852"
       style="fill:#444142;fill-opacity:1;fill-rule:nonzero;stroke:none"
       id="path3021" />
    <path
       inkscape:connector-curvature="0"
       d="m 11.204084,10.314364 c 0.176647,0.276105 0.02715,0.686144 -0.350852,0.868893 -2.1160966,1.026929 -4.5903674,1.026929 -6.7061588,0 C 3.768763,11.000203 3.6195745,10.590469 3.796221,10.314364 l 0,0 c 0.1769515,-0.277326 0.5598381,-0.3505475 0.8698084,-0.201054 1.788431,0.867673 3.8798153,0.867673 5.6679416,0 0.30997,-0.1494935 0.693162,-0.07627 0.870113,0.201054 l 0,0"
       style="fill:#444142;fill-opacity:1;fill-rule:nonzero;stroke:none"
       id="path3023" />
  </g>
</svg>
