<?xml version="1.0" encoding="UTF-8" standalone="no"?>
<!-- Created with Inkscape (http://www.inkscape.org/) -->

<svg
   xmlns:dc="http://purl.org/dc/elements/1.1/"
   xmlns:cc="http://creativecommons.org/ns#"
   xmlns:rdf="http://www.w3.org/1999/02/22-rdf-syntax-ns#"
   xmlns:svg="http://www.w3.org/2000/svg"
   xmlns="http://www.w3.org/2000/svg"
   xmlns:sodipodi="http://sodipodi.sourceforge.net/DTD/sodipodi-0.dtd"
   xmlns:inkscape="http://www.inkscape.org/namespaces/inkscape"
   width="15"
   height="15"
   id="svg3680"
   version="1.1"
   inkscape:version="0.48.4 r9939"
   sodipodi:docname="happy.svg">
  <defs
     id="defs3682" />
  <sodipodi:namedview
     id="base"
     pagecolor="#ffffff"
     bordercolor="#666666"
     borderopacity="1.0"
     inkscape:pageopacity="0.0"
     inkscape:pageshadow="2"
     inkscape:zoom="9.0038264"
     inkscape:cx="1.7516039"
     inkscape:cy="3.6106809"
     inkscape:current-layer="layer1"
     showgrid="true"
     inkscape:grid-bbox="true"
     inkscape:document-units="px"
     inkscape:window-width="1236"
     inkscape:window-height="681"
     inkscape:window-x="52"
     inkscape:window-y="52"
     inkscape:window-maximized="0" />
  <metadata
     id="metadata3685">
    <rdf:RDF>
      <cc:Work
         rdf:about="">
        <dc:format>image/svg+xml</dc:format>
        <dc:type
           rdf:resource="http://purl.org/dc/dcmitype/StillImage" />
        <dc:title></dc:title>
      </cc:Work>
    </rdf:RDF>
  </metadata>
  <g
     id="layer1"
     inkscape:label="Layer 1"
     inkscape:groupmode="layer"
     transform="translate(0,-1)">
    <path
       inkscape:connector-curvature="0"
       d="M 7.5,1 C 3.3578082,1 0,4.3578082 0,8.5 0,12.642192 3.3578082,16 7.5,16 11.642192,16 15,12.642192 15,8.5 15,4.3578082 11.642192,1 7.5,1 l 0,0 z m 0,1.5254444 c 3.29435,0 5.974556,2.6802058 5.974556,5.9745556 0,3.29435 -2.680206,5.974556 -5.974556,5.974556 C 4.2056502,14.474556 1.5254444,11.79435 1.5254444,8.5 1.5254444,5.2056502 4.2056502,2.5254444 7.5,2.5254444"
       style="fill:#444142;fill-opacity:1;fill-rule:nonzero;stroke:none"
       id="path3037" />
    <path
       inkscape:connector-curvature="0"
       d="m 6.116727,7.2171012 c 0,0.5689908 -0.4612944,1.0302852 -1.0299801,1.0302852 -0.5692958,0 -1.0302851,-0.4612944 -1.0302851,-1.0302852 0,-0.5689907 0.4609893,-1.0302851 1.0302851,-1.0302851 0.5686857,0 1.0299801,0.4612944 1.0299801,1.0302851"
       style="fill:#444142;fill-opacity:1;fill-rule:nonzero;stroke:none"
       id="path3039" />
    <path
       inkscape:connector-curvature="0"
       d="m 10.943843,7.2171012 c 0,0.5689908 -0.460989,1.0302852 -1.0302849,1.0302852 -0.5689907,0 -1.0302851,-0.4612944 -1.0302851,-1.0302852 0,-0.5689907 0.4612944,-1.0302851 1.0302851,-1.0302851 0.5692959,0 1.0302849,0.4612944 1.0302849,1.0302851"
       style="fill:#444142;fill-opacity:1;fill-rule:nonzero;stroke:none"
       id="path3041" />
    <path
       inkscape:connector-curvature="0"
       d="m 3.796221,11.676891 c -0.1769516,-0.276106 -0.027153,-0.686145 0.3505471,-0.869199 2.1160965,-1.0269289 4.5903673,-1.0269289 6.7064639,0 0.37831,0.183359 0.527193,0.593093 0.350852,0.869199 l 0,0 c -0.176951,0.27702 -0.560143,0.350242 -0.869808,0.201053 -1.7887364,-0.867978 -3.8801207,-0.867978 -5.6682466,0 -0.3099703,0.149189 -0.6928569,0.07627 -0.8698084,-0.201053 l 0,0"
       style="fill:#444142;fill-opacity:1;fill-rule:nonzero;stroke:none"
       id="path3043" />
  </g>
</svg>
